HIERARCHY
ROOT hip
{
  OFFSET 0 0 0
  CHANNELS 6 Xposition Yposition Zposition Zrotation Yrotation Xrotation
  JOINT abdomen
  {
    OFFSET 0 20.6881 -0.73152
    CHANNELS 3 Zrotation Xrotation Yrotation
    JOINT chest
    {
      OFFSET 0 11.7043 -0.48768
      CHANNELS 3 Zrotation Xrotation Yrotation
      JOINT neck
      {
        OFFSET 0 22.1894 -2.19456
        CHANNELS 3 Zrotation Xrotation Yrotation
        JOINT head
        {
          OFFSET -0.24384 7.07133 1.2192
          CHANNELS 3 Zrotation Xrotation Yrotation
          JOINT leftEye
          {
            OFFSET 4.14528 8.04674 8.04672
            CHANNELS 3 Zrotation Xrotation Yrotation
            End Site
            {
              OFFSET 1 0 0
            }
          }
          JOINT rightEye
          {
            OFFSET -3.6576 8.04674 8.04672
            CHANNELS 3 Zrotation Xrotation Yrotation
            End Site
            {
              OFFSET 1 0 0
            }
          }
        }
      }
      JOINT rCollar
      {
        OFFSET -2.68224 19.2634 -4.8768
        CHANNELS 3 Zrotation Xrotation Yrotation
        JOINT rShldr
        {
          OFFSET -8.77824 -1.95073 1.46304
          CHANNELS 3 Zrotation Xrotation Yrotation
          JOINT rForeArm
          {
            OFFSET -28.1742 -1.7115 0.48768
            CHANNELS 3 Zrotation Xrotation Yrotation
            JOINT rHand
            {
              OFFSET -22.5879 0.773209 7.07136
              CHANNELS 3 Zrotation Xrotation Yrotation
              JOINT rThumb1
              {
                OFFSET -1.2192 -0.487915 3.41376
                CHANNELS 3 Zrotation Xrotation Yrotation
                JOINT rThumb2
                {
                  OFFSET -3.37035 -0.52449 3.41376
                  CHANNELS 3 Zrotation Xrotation Yrotation
                  End Site
                  {
                    OFFSET -1.78271 -1.18214 1.43049
                  }
                }
              }
              JOINT rIndex1
              {
                OFFSET -7.75947 0.938293 5.60832
                CHANNELS 3 Zrotation Xrotation Yrotation
                JOINT rIndex2
                {
                  OFFSET -2.54057 -0.884171 1.56538
                  CHANNELS 3 Zrotation Xrotation Yrotation
                  End Site
                  {
                    OFFSET -1.62519 -0.234802 1.16502
                  }
                }
              }
              JOINT rMid1
              {
                OFFSET -8.24714 1.18213 3.41376
                CHANNELS 3 Zrotation Xrotation Yrotation
                JOINT rMid2
                {
                  OFFSET -3.10165 -0.590103 1.0647
                  CHANNELS 3 Zrotation Xrotation Yrotation
                  End Site
                  {
                    OFFSET -2.48547 -0.328903 0.83742
                  }
                }
              }
              JOINT rRing1
              {
                OFFSET -8.82822 0.546677 1.51678
                CHANNELS 3 Zrotation Xrotation Yrotation
                JOINT rRing2
                {
                  OFFSET -2.60934 -0.819778 -0.0198488
                  CHANNELS 3 Zrotation Xrotation Yrotation
                  End Site
                  {
                    OFFSET -2.33842 -0.294052 0.168128
                  }
                }
              }
              JOINT rPinky1
              {
                OFFSET -8.27202 -0.0477905 -0.4584
                CHANNELS 3 Zrotation Xrotation Yrotation
                JOINT rPinky2
                {
                  OFFSET -1.82734 -0.647385 -0.700984
                  CHANNELS 3 Zrotation Xrotation Yrotation
                  End Site
                  {
                    OFFSET -1.69225 -0.51767 -0.607171
                  }
                }
              }
            }
          }
        }
      }
      JOINT lCollar
      {
        OFFSET 2.68224 19.2634 -4.8768
        CHANNELS 3 Zrotation Xrotation Yrotation
        JOINT lShldr
        {
          OFFSET 8.77824 -1.95073 1.46304
          CHANNELS 3 Zrotation Xrotation Yrotation
          JOINT lForeArm
          {
            OFFSET 28.1742 -1.7115 0.48768
            CHANNELS 3 Zrotation Xrotation Yrotation
            JOINT lHand
            {
              OFFSET 22.5879 0.773209 7.07136
              CHANNELS 3 Zrotation Xrotation Yrotation
              JOINT lThumb1
              {
                OFFSET 1.2192 -0.487915 3.41376
                CHANNELS 3 Zrotation Xrotation Yrotation
                JOINT lThumb2
                {
                  OFFSET 3.37035 -0.52449 3.41376
                  CHANNELS 3 Zrotation Xrotation Yrotation
                  End Site
                  {
                    OFFSET 1.78271 -1.18214 1.43049
                  }
                }
              }
              JOINT lIndex1
              {
                OFFSET 7.75947 0.938293 5.60832
                CHANNELS 3 Zrotation Xrotation Yrotation
                JOINT lIndex2
                {
                  OFFSET 2.54057 -0.884171 1.56538
                  CHANNELS 3 Zrotation Xrotation Yrotation
                  End Site
                  {
                    OFFSET 1.62519 -0.234802 1.16502
                  }
                }
              }
              JOINT lMid1
              {
                OFFSET 8.24714 1.18213 3.41376
                CHANNELS 3 Zrotation Xrotation Yrotation
                JOINT lMid2
                {
                  OFFSET 3.10165 -0.590103 1.0647
                  CHANNELS 3 Zrotation Xrotation Yrotation
                  End Site
                  {
                    OFFSET 2.48547 -0.328903 0.83742
                  }
                }
              }
              JOINT lRing1
              {
                OFFSET 8.82822 0.546677 1.51678
                CHANNELS 3 Zrotation Xrotation Yrotation
                JOINT lRing2
                {
                  OFFSET 2.60934 -0.819778 -0.0198488
                  CHANNELS 3 Zrotation Xrotation Yrotation
                  End Site
                  {
                    OFFSET 2.33842 -0.294052 0.168128
                  }
                }
              }
              JOINT lPinky1
              {
                OFFSET 8.27202 -0.0477905 -0.4584
                CHANNELS 3 Zrotation Xrotation Yrotation
                JOINT lPinky2
                {
                  OFFSET 1.82734 -0.647385 -0.700984
                  CHANNELS 3 Zrotation Xrotation Yrotation
                  End Site
                  {
                    OFFSET 1.69225 -0.51767 -0.607171
                  }
                }
              }
            }
          }
        }
      }
    }
  }
  JOINT rButtock
  {
    OFFSET -8.77824 4.35084 1.2192
    CHANNELS 3 Zrotation Xrotation Yrotation
    JOINT rThigh
    {
      OFFSET 0 -1.70687 -2.19456
      CHANNELS 3 Zrotation Xrotation Yrotation
      JOINT rShin
      {
        OFFSET 0 -36.8199 0.73152
        CHANNELS 3 Zrotation Xrotation Yrotation
        JOINT rFoot
        {
          OFFSET 0.73152 -45.1104 -5.12064
          CHANNELS 3 Zrotation Xrotation Yrotation
          End Site
          {
            OFFSET -1.1221 -3.69964 12.103
          }
        }
      }
    }
  }
  JOINT lButtock
  {
    OFFSET 8.77824 4.35084 1.2192
    CHANNELS 3 Zrotation Xrotation Yrotation
    JOINT lThigh
    {
      OFFSET 0 -1.70687 -2.19456
      CHANNELS 3 Zrotation Xrotation Yrotation
      JOINT lShin
      {
        OFFSET 0 -36.8199 0.73152
        CHANNELS 3 Zrotation Xrotation Yrotation
        JOINT lFoot
        {
          OFFSET -0.73152 -45.1104 -5.12064
          CHANNELS 3 Zrotation Xrotation Yrotation
          End Site
          {
            OFFSET 1.1221 -3.69964 12.103
          }
        }
      }
    }
  }
}
MOTION
Frames:	7
Frame Time:	0.00833333
122.409 41.5814 23.3248 0.0 0.0 0.0 -0.735006 -0.0036924 -0.0206949 -0.202648 -0.00499293 -0.0351113 -2.36135e-14 7.95139e-16 -9.93923e-17 -7.06214e-14 9.54166e-15 -3.24578e-16 -0.0 0.0 0.0 -0.0 0.0 0.0 -1.18295e-14 -2.17421e-17 0.0 -2.44206e-13 -1.86361e-16 -5.96354e-16 -4.25409e-12 1.26268e-12 2.8625e-14 -4.86983e-11 -1.33919e-12 -3.08514e-13 -1.14872e-10 -1.67999e-13 -6.10667e-13 -1.98388e-10 -2.95792e-13 -1.05992e-12 -1.14864e-10 -1.65389e-13 -6.20208e-13 7.73091 5.47488 0.417314 -1.14871e-10 -1.67476e-13 -6.13847e-13 2.90554 0.965183 0.102902 -1.14862e-10 -1.67874e-13 -6.16232e-13 10.2786 0.731801 0.0259123 -1.14872e-10 -1.66582e-13 -6.20208e-13 2.22167 -0.733487 -0.20892 -1.18266e-14 -2.15479e-17 -9.93923e-17 -2.49323e-13 -9.31803e-17 -2.98177e-15 -4.25687e-12 -1.28455e-12 1.27222e-14 -4.87058e-11 1.21373e-12 -3.02153e-13 -1.14891e-10 -1.56994e-13 -6.2975e-13 -1.98407e-10 -2.79889e-13 -1.06867e-12 -1.14897e-10 -1.55847e-13 -6.17028e-13 -7.73091 5.47488 -0.417314 -1.14892e-10 -1.56444e-13 -6.20208e-13 -2.90554 0.965183 -0.102902 -1.14902e-10 -1.56444e-13 -6.21003e-13 -10.2786 0.731801 -0.0259123 -1.14887e-10 -1.55847e-13 -6.23389e-13 -2.22167 -0.733487 0.20892 -2.03217e-16 0.0 -3.88251e-19 -0.034722 -2.13134 -0.0183596 -0.00889734 -1.69197 -0.0750441 -0.52202 3.82299 0.138183 2.03217e-16 0.0 3.88251e-19 -1.08424 -4.91179 0.091058 0.00129697 3.34434 -0.00260568 0.532086 1.56725 -0.0929563
100.774 48.3169 17.8448 158.788 -84.6501 -178.727 0.0334542 13.1207 1.25712 0.525055 0.269232 0.0453182 -2.04533 -1.8383 0.488265 2.19211 -3.67749 2.02433 -0.0 0.0 0.0 -0.0 0.0 0.0 -1.2992e-14 -1.58506e-13 8.87193e-15 16.7428 11.6965 8.94103 -13.2789 -10.3276 13.9814 0.0103419 2.25982 0.31671 3.97129e-10 -3.15859e-10 -3.09754e-10 6.84756e-10 -5.46339e-10 -5.39205e-10 3.97135e-10 -3.15856e-10 -3.09765e-10 7.73091 5.47488 0.417314 3.97129e-10 -3.15856e-10 -3.09756e-10 2.90554 0.965183 0.102902 3.97139e-10 -3.15858e-10 -3.09758e-10 10.2786 0.731801 0.0259123 3.97129e-10 -3.15857e-10 -3.09757e-10 2.22167 -0.733487 -0.20892 -1.29922e-14 -1.58505e-13 8.68751e-15 -18.7752 15.6825 -10.3003 11.2407 -8.1386 -13.0462 -0.156002 8.7823 -1.18259 -3.50138e-10 -2.17402e-10 -8.93531e-11 -6.07114e-10 -3.78036e-10 -1.47761e-10 -3.50144e-10 -2.17401e-10 -8.93422e-11 -7.73091 5.47488 -0.417314 -3.50139e-10 -2.17401e-10 -8.93444e-11 -2.90554 0.965183 -0.102902 -3.50149e-10 -2.17402e-10 -8.93458e-11 -10.2786 0.731801 -0.0259123 -3.50134e-10 -2.17401e-10 -8.93492e-11 -2.22167 -0.733487 0.20892 -2.03217e-16 0.0 -3.88251e-19 -3.32999 -15.043 -1.75145 0.404613 16.6001 0.320335 0.265096 4.00795 -1.26246 2.03217e-16 0.0 3.88251e-19 3.34549 -15.7893 3.37915 -0.386133 19.2512 -0.419634 0.0497736 2.64513 -3.0489
100.799 48.3291 17.7883 160.91 -84.5781 -180.858 0.142708 26.9744 2.8632 1.28473 0.556487 0.134687 -4.15768 -3.77562 1.01597 4.76032 -7.55012 4.20092 -0.0 0.0 0.0 -0.0 0.0 0.0 -1.53116e-14 -3.52081e-13 1.95834e-14 30.2381 23.0794 19.6253 -21.806 -19.1663 30.1155 -0.00595651 4.63357 0.651061 9.60743e-10 -6.60159e-10 -6.41825e-10 1.65696e-09 -1.14188e-09 -1.11733e-09 9.60746e-10 -6.60157e-10 -6.41839e-10 7.73091 5.47488 0.417314 9.6074e-10 -6.60154e-10 -6.41827e-10 2.90554 0.965183 0.102902 9.60751e-10 -6.60157e-10 -6.41827e-10 10.2786 0.731801 0.0259123 9.60742e-10 -6.60157e-10 -6.41822e-10 2.22167 -0.733487 -0.20892 -1.53146e-14 -3.5208e-13 1.9307e-14 -31.7499 30.4857 -23.8503 19.1299 -15.3359 -27.6359 0.0915884 18.0336 -2.52602 -5.89949e-10 -4.37451e-10 -1.80282e-10 -1.02381e-09 -7.60733e-10 -2.98154e-10 -5.89954e-10 -4.37449e-10 -1.80273e-10 -7.73091 5.47488 -0.417314 -5.8995e-10 -4.3745e-10 -1.80274e-10 -2.90554 0.965183 -0.102902 -5.89958e-10 -4.37451e-10 -1.80277e-10 -10.2786 0.731801 -0.0259123 -5.89945e-10 -4.3745e-10 -1.80281e-10 -2.22167 -0.733487 0.20892 -2.03217e-16 0.0 -3.88251e-19 -7.76215 -28.6577 -3.94645 0.512496 35.9345 0.877923 1.10688 4.19958 -2.74197 2.03217e-16 0.0 3.88251e-19 9.55488 -27.1556 7.42314 -0.488755 36.0668 -1.00484 -0.339097 3.7668 -6.18737
100.803 48.3321 17.767 160.141 -84.432 -180.133 -0.616995 39.2798 4.80066 1.97815 0.817677 0.206197 -6.04162 -5.5133 1.47085 7.36664 -10.9769 6.17387 -0.0 0.0 0.0 -0.0 0.0 0.0 -1.5317e-14 -4.75474e-13 2.66158e-14 38.1871 31.3912 31.221 -25.1843 -23.4143 45.933 -0.0443686 6.77863 0.956076 1.42113e-09 -9.4724e-10 -9.28041e-10 2.45104e-09 -1.63843e-09 -1.61549e-09 1.42113e-09 -9.47238e-10 -9.28056e-10 7.73091 5.47488 0.417314 1.42113e-09 -9.47234e-10 -9.28041e-10 2.90554 0.965183 0.102902 1.42114e-09 -9.47238e-10 -9.28041e-10 10.2786 0.731801 0.0259123 1.42113e-09 -9.47238e-10 -9.28031e-10 2.22167 -0.733487 -0.20892 -1.53233e-14 -4.75473e-13 2.62613e-14 -36.0989 40.0179 -40.3693 23.054 -19.2878 -41.5263 0.725476 26.2993 -3.91157 -8.20633e-10 -6.51892e-10 -2.668e-10 -1.42453e-09 -1.13355e-09 -4.41145e-10 -8.20638e-10 -6.5189e-10 -2.66793e-10 -7.73091 5.47488 -0.417314 -8.20633e-10 -6.51891e-10 -2.66793e-10 -2.90554 0.965183 -0.102902 -8.20641e-10 -6.51892e-10 -2.66795e-10 -10.2786 0.731801 -0.0259123 -8.20628e-10 -6.51892e-10 -2.66801e-10 -2.22167 -0.733487 0.20892 -2.03217e-16 0.0 -3.88251e-19 -12.9053 -40.695 -6.65052 0.071318 53.1716 1.78687 1.86644 4.36978 -4.06571 2.03217e-16 0.0 3.88251e-19 16.7634 -37.0103 12.0207 -0.111467 51.0513 -1.88257 -0.581836 4.75339 -8.98225
100.798 48.3387 17.8016 156.523 -84.285 -176.706 -1.87828 47.8001 6.65683 2.50773 1.01371 0.23304 -7.42389 -6.75352 1.73766 9.50108 -13.343 7.54067 -0.0 0.0 0.0 -0.0 0.0 0.0 -9.53647e-15 -4.23411e-13 2.44505e-14 41.3328 35.5547 40.7451 -26.0741 -23.6264 57.0752 -0.0863404 8.35272 1.18237 1.62346e-09 -1.09127e-09 -1.09962e-09 2.79984e-09 -1.88751e-09 -1.91376e-09 1.62347e-09 -1.09127e-09 -1.09963e-09 7.73091 5.47488 0.417314 1.62346e-09 -1.09127e-09 -1.09962e-09 2.90554 0.965183 0.102902 1.62347e-09 -1.09127e-09 -1.09962e-09 10.2786 0.731801 0.0259123 1.62346e-09 -1.09127e-09 -1.0996e-09 2.22167 -0.733487 -0.20892 -9.54749e-15 -4.23411e-13 2.40529e-14 -35.3959 43.2731 -54.3072 24.5367 -20.1353 -51.3548 1.46066 32.145 -5.06667 -1.0285e-09 -8.52313e-10 -3.42288e-10 -1.78529e-09 -1.48166e-09 -5.65635e-10 -1.0285e-09 -8.52311e-10 -3.42282e-10 -7.73091 5.47488 -0.417314 -1.0285e-09 -8.52312e-10 -3.42282e-10 -2.90554 0.965183 -0.102902 -1.02851e-09 -8.52313e-10 -3.42285e-10 -10.2786 0.731801 -0.0259123 -1.02849e-09 -8.52312e-10 -3.42291e-10 -2.22167 -0.733487 0.20892 -2.03217e-16 0.0 -3.88251e-19 -17.5697 -48.9444 -9.34642 -1.02724 65.1742 3.14956 2.40166 4.49236 -4.99859 2.03217e-16 0.0 3.88251e-19 22.9844 -43.5811 16.1178 0.733754 61.4689 -3.01989 -0.693212 5.44452 -10.9001
100.805 48.3757 17.8832 151.837 -84.2363 -172.262 -2.57091 51.1135 7.38901 2.82701 1.12329 0.191143 -8.15004 -7.32644 1.7457 10.7189 -14.2286 8.01478 -0.0 0.0 0.0 -0.0 0.0 0.0 7.79407e-15 -4.06487e-14 4.96729e-15 41.9577 36.7137 44.9195 -26.2962 -23.0172 61.195 -0.110567 9.15739 1.29887 1.41992e-09 -1.01678e-09 -1.11323e-09 2.4482e-09 -1.75852e-09 -1.93631e-09 1.41993e-09 -1.01678e-09 -1.11325e-09 7.73091 5.47488 0.417314 1.41992e-09 -1.01678e-09 -1.11323e-09 2.90554 0.965183 0.102902 1.41993e-09 -1.01678e-09 -1.11323e-09 10.2786 0.731801 0.0259123 1.41992e-09 -1.01678e-09 -1.11322e-09 2.22167 -0.733487 -0.20892 7.77223e-15 -4.06508e-14 4.5802e-15 -34.8723 43.6057 -59.9172 24.924 -19.9296 -54.9893 1.85884 34.6824 -5.62718 -1.2442e-09 -1.07236e-09 -4.06825e-10 -2.1588e-09 -1.86302e-09 -6.7084e-10 -1.24421e-09 -1.07236e-09 -4.06818e-10 -7.73091 5.47488 -0.417314 -1.2442e-09 -1.07236e-09 -4.06818e-10 -2.90554 0.965183 -0.102902 -1.24421e-09 -1.07236e-09 -4.06822e-10 -10.2786 0.731801 -0.0259123 -1.2442e-09 -1.07236e-09 -4.0683e-10 -2.22167 -0.733487 0.20892 -2.03217e-16 0.0 -3.88251e-19 -19.8429 -52.0422 -10.6681 -1.916 69.8667 4.12795 2.61442 4.55382 -5.37579 2.03217e-16 0.0 3.88251e-19 25.5365 -45.9851 17.8543 1.3375 65.5082 -3.72457 -0.722196 5.75466 -11.5815
100.815 48.3881 17.901 150.815 -84.2841 -171.373 -2.41083 50.7374 6.92636 2.99541 1.17089 0.100437 -8.41316 -7.42158 1.56736 11.2234 -14.0688 7.83094 -0.0 0.0 0.0 -0.0 0.0 0.0 3.32104e-14 5.74278e-13 -2.66744e-14 41.665 36.601 44.7837 -26.2413 -23.0244 60.5919 -0.11597 9.41127 1.33547 9.28598e-10 -7.87075e-10 -1.0139e-09 1.59991e-09 -1.36099e-09 -1.76173e-09 9.286e-10 -7.8707e-10 -1.01391e-09 7.73091 5.47488 0.417314 9.28591e-10 -7.87067e-10 -1.01389e-09 2.90554 0.965183 0.102902 9.28604e-10 -7.87068e-10 -1.0139e-09 10.2786 0.731801 0.0259123 9.28596e-10 -7.87068e-10 -1.01389e-09 2.22167 -0.733487 -0.20892 3.31735e-14 5.74272e-13 -2.7013e-14 -35.4161 43.5493 -59.2151 24.8047 -19.809 -54.2801 1.86987 34.8674 -5.66174 -1.46361e-09 -1.30455e-09 -4.63325e-10 -2.53814e-09 -2.26489e-09 -7.61956e-10 -1.46361e-09 -1.30455e-09 -4.63316e-10 -7.73091 5.47488 -0.417314 -1.4636e-09 -1.30455e-09 -4.63318e-10 -2.90554 0.965183 -0.102902 -1.46361e-09 -1.30455e-09 -4.63322e-10 -10.2786 0.731801 -0.0259123 -1.4636e-09 -1.30455e-09 -4.63333e-10 -2.22167 -0.733487 0.20892 -2.03217e-16 0.0 -3.88251e-19 -19.7609 -51.5243 -10.4399 -1.79565 69.3516 3.9971 2.59476 4.57227 -5.35629 2.03217e-16 0.0 3.88251e-19 24.7854 -45.5607 17.3481 1.25376 65.0015 -3.62736 -0.716563 5.79987 -11.3768
